<mxfile host="app.diagrams.net" modified="2022-08-16T06:48:37.581Z" agent="5.0 (Windows NT 10.0; Win64; x64) AppleWebKit/537.36 (KHTML, like Gecko) Chrome/89.0.4389.90 Safari/537.36" etag="wQ1pLMHi_n3y8m7KW8r7" version="20.2.3" type="github">
  <diagram id="C5RBs43oDa-KdzZeNtuy" name="Page-1">
    <mxGraphModel dx="965" dy="599" grid="1" gridSize="10" guides="1" tooltips="1" connect="1" arrows="1" fold="1" page="1" pageScale="1" pageWidth="827" pageHeight="1169" math="0" shadow="0">
      <root>
        <mxCell id="WIyWlLk6GJQsqaUBKTNV-0" />
        <mxCell id="WIyWlLk6GJQsqaUBKTNV-1" parent="WIyWlLk6GJQsqaUBKTNV-0" />
        <mxCell id="s1SKyb5S-FayG0PBtF7E-6" value="&lt;p style=&quot;margin:0px;margin-top:4px;text-align:center;&quot;&gt;ClassLoader&lt;/p&gt;&lt;hr size=&quot;1&quot;&gt;&lt;p style=&quot;margin:0px;margin-left:4px;&quot;&gt;&lt;br&gt;&lt;/p&gt;&lt;hr size=&quot;1&quot;&gt;&lt;p style=&quot;margin:0px;margin-left:4px;&quot;&gt;&lt;br&gt;&lt;/p&gt;" style="verticalAlign=top;align=left;overflow=fill;fontSize=12;fontFamily=Helvetica;html=1;" vertex="1" parent="WIyWlLk6GJQsqaUBKTNV-1">
          <mxGeometry x="175" y="55" width="180" height="70" as="geometry" />
        </mxCell>
        <mxCell id="s1SKyb5S-FayG0PBtF7E-19" value="" style="edgeStyle=orthogonalEdgeStyle;rounded=0;orthogonalLoop=1;jettySize=auto;html=1;" edge="1" parent="WIyWlLk6GJQsqaUBKTNV-1" source="s1SKyb5S-FayG0PBtF7E-7" target="s1SKyb5S-FayG0PBtF7E-6">
          <mxGeometry relative="1" as="geometry" />
        </mxCell>
        <mxCell id="s1SKyb5S-FayG0PBtF7E-7" value="&lt;p style=&quot;margin:0px;margin-top:4px;text-align:center;&quot;&gt;SecureClassLoader&lt;/p&gt;&lt;hr size=&quot;1&quot;&gt;&lt;p style=&quot;margin:0px;margin-left:4px;&quot;&gt;&lt;br&gt;&lt;/p&gt;&lt;hr size=&quot;1&quot;&gt;&lt;p style=&quot;margin:0px;margin-left:4px;&quot;&gt;&lt;br&gt;&lt;/p&gt;" style="verticalAlign=top;align=left;overflow=fill;fontSize=12;fontFamily=Helvetica;html=1;" vertex="1" parent="WIyWlLk6GJQsqaUBKTNV-1">
          <mxGeometry x="170" y="155" width="190" height="80" as="geometry" />
        </mxCell>
        <mxCell id="s1SKyb5S-FayG0PBtF7E-20" value="" style="edgeStyle=orthogonalEdgeStyle;rounded=0;orthogonalLoop=1;jettySize=auto;html=1;" edge="1" parent="WIyWlLk6GJQsqaUBKTNV-1" source="s1SKyb5S-FayG0PBtF7E-8" target="s1SKyb5S-FayG0PBtF7E-7">
          <mxGeometry relative="1" as="geometry" />
        </mxCell>
        <mxCell id="s1SKyb5S-FayG0PBtF7E-8" value="&lt;p style=&quot;margin:0px;margin-top:4px;text-align:center;&quot;&gt;URLClassLoader&lt;/p&gt;&lt;hr size=&quot;1&quot;&gt;&lt;p style=&quot;margin:0px;margin-left:4px;&quot;&gt;&lt;br&gt;&lt;/p&gt;&lt;hr size=&quot;1&quot;&gt;&lt;p style=&quot;margin:0px;margin-left:4px;&quot;&gt;&lt;br&gt;&lt;/p&gt;" style="verticalAlign=top;align=left;overflow=fill;fontSize=12;fontFamily=Helvetica;html=1;" vertex="1" parent="WIyWlLk6GJQsqaUBKTNV-1">
          <mxGeometry x="170" y="265" width="190" height="80" as="geometry" />
        </mxCell>
        <mxCell id="s1SKyb5S-FayG0PBtF7E-21" style="edgeStyle=orthogonalEdgeStyle;rounded=0;orthogonalLoop=1;jettySize=auto;html=1;entryX=0.5;entryY=1;entryDx=0;entryDy=0;" edge="1" parent="WIyWlLk6GJQsqaUBKTNV-1" source="s1SKyb5S-FayG0PBtF7E-9" target="s1SKyb5S-FayG0PBtF7E-8">
          <mxGeometry relative="1" as="geometry" />
        </mxCell>
        <mxCell id="s1SKyb5S-FayG0PBtF7E-9" value="&lt;p style=&quot;margin:0px;margin-top:4px;text-align:center;&quot;&gt;ExtClassLoader&lt;/p&gt;&lt;hr size=&quot;1&quot;&gt;&lt;p style=&quot;margin:0px;margin-left:4px;&quot;&gt;&lt;br&gt;&lt;/p&gt;&lt;hr size=&quot;1&quot;&gt;&lt;p style=&quot;margin:0px;margin-left:4px;&quot;&gt;&lt;br&gt;&lt;/p&gt;" style="verticalAlign=top;align=left;overflow=fill;fontSize=12;fontFamily=Helvetica;html=1;" vertex="1" parent="WIyWlLk6GJQsqaUBKTNV-1">
          <mxGeometry x="30" y="405" width="190" height="80" as="geometry" />
        </mxCell>
        <mxCell id="s1SKyb5S-FayG0PBtF7E-23" style="edgeStyle=orthogonalEdgeStyle;rounded=0;orthogonalLoop=1;jettySize=auto;html=1;exitX=0.5;exitY=0;exitDx=0;exitDy=0;entryX=0.5;entryY=1;entryDx=0;entryDy=0;" edge="1" parent="WIyWlLk6GJQsqaUBKTNV-1" source="s1SKyb5S-FayG0PBtF7E-10" target="s1SKyb5S-FayG0PBtF7E-8">
          <mxGeometry relative="1" as="geometry" />
        </mxCell>
        <mxCell id="s1SKyb5S-FayG0PBtF7E-10" value="&lt;p style=&quot;margin:0px;margin-top:4px;text-align:center;&quot;&gt;AppClassLoader&lt;/p&gt;&lt;hr size=&quot;1&quot;&gt;&lt;p style=&quot;margin:0px;margin-left:4px;&quot;&gt;&lt;br&gt;&lt;/p&gt;&lt;hr size=&quot;1&quot;&gt;&lt;p style=&quot;margin:0px;margin-left:4px;&quot;&gt;&lt;br&gt;&lt;/p&gt;" style="verticalAlign=top;align=left;overflow=fill;fontSize=12;fontFamily=Helvetica;html=1;" vertex="1" parent="WIyWlLk6GJQsqaUBKTNV-1">
          <mxGeometry x="310" y="405" width="190" height="80" as="geometry" />
        </mxCell>
        <mxCell id="s1SKyb5S-FayG0PBtF7E-24" value="&lt;p style=&quot;margin:0px;margin-top:4px;text-align:center;&quot;&gt;ClassLoader&lt;/p&gt;&lt;hr size=&quot;1&quot;&gt;&lt;p style=&quot;margin:0px;margin-left:4px;&quot;&gt;&lt;br&gt;&lt;/p&gt;&lt;hr size=&quot;1&quot;&gt;&lt;p style=&quot;margin:0px;margin-left:4px;&quot;&gt;&lt;br&gt;&lt;/p&gt;" style="verticalAlign=top;align=left;overflow=fill;fontSize=12;fontFamily=Helvetica;html=1;" vertex="1" parent="WIyWlLk6GJQsqaUBKTNV-1">
          <mxGeometry x="870" y="56" width="180" height="70" as="geometry" />
        </mxCell>
        <mxCell id="s1SKyb5S-FayG0PBtF7E-33" style="edgeStyle=orthogonalEdgeStyle;rounded=0;orthogonalLoop=1;jettySize=auto;html=1;exitX=0.5;exitY=0;exitDx=0;exitDy=0;entryX=0.5;entryY=1;entryDx=0;entryDy=0;" edge="1" parent="WIyWlLk6GJQsqaUBKTNV-1" source="s1SKyb5S-FayG0PBtF7E-25" target="s1SKyb5S-FayG0PBtF7E-24">
          <mxGeometry relative="1" as="geometry" />
        </mxCell>
        <mxCell id="s1SKyb5S-FayG0PBtF7E-25" value="&lt;p style=&quot;margin:0px;margin-top:4px;text-align:center;&quot;&gt;SecureClassLoader&lt;br&gt;&lt;/p&gt;&lt;hr size=&quot;1&quot;&gt;&lt;p style=&quot;margin:0px;margin-left:4px;&quot;&gt;&lt;br&gt;&lt;/p&gt;&lt;hr size=&quot;1&quot;&gt;&lt;p style=&quot;margin:0px;margin-left:4px;&quot;&gt;&lt;br&gt;&lt;/p&gt;" style="verticalAlign=top;align=left;overflow=fill;fontSize=12;fontFamily=Helvetica;html=1;" vertex="1" parent="WIyWlLk6GJQsqaUBKTNV-1">
          <mxGeometry x="1220" y="171" width="180" height="70" as="geometry" />
        </mxCell>
        <mxCell id="s1SKyb5S-FayG0PBtF7E-30" style="edgeStyle=orthogonalEdgeStyle;rounded=0;orthogonalLoop=1;jettySize=auto;html=1;exitX=0.5;exitY=0;exitDx=0;exitDy=0;entryX=0.5;entryY=1;entryDx=0;entryDy=0;" edge="1" parent="WIyWlLk6GJQsqaUBKTNV-1" source="s1SKyb5S-FayG0PBtF7E-26" target="s1SKyb5S-FayG0PBtF7E-24">
          <mxGeometry relative="1" as="geometry" />
        </mxCell>
        <mxCell id="s1SKyb5S-FayG0PBtF7E-26" value="&lt;p style=&quot;margin:0px;margin-top:4px;text-align:center;&quot;&gt;BootClassLoader&lt;/p&gt;&lt;hr size=&quot;1&quot;&gt;&lt;p style=&quot;margin:0px;margin-left:4px;&quot;&gt;&lt;br&gt;&lt;/p&gt;&lt;hr size=&quot;1&quot;&gt;&lt;p style=&quot;margin:0px;margin-left:4px;&quot;&gt;&lt;br&gt;&lt;/p&gt;" style="verticalAlign=top;align=left;overflow=fill;fontSize=12;fontFamily=Helvetica;html=1;" vertex="1" parent="WIyWlLk6GJQsqaUBKTNV-1">
          <mxGeometry x="580" y="171" width="180" height="70" as="geometry" />
        </mxCell>
        <mxCell id="s1SKyb5S-FayG0PBtF7E-31" style="edgeStyle=orthogonalEdgeStyle;rounded=0;orthogonalLoop=1;jettySize=auto;html=1;entryX=0.5;entryY=1;entryDx=0;entryDy=0;" edge="1" parent="WIyWlLk6GJQsqaUBKTNV-1" source="s1SKyb5S-FayG0PBtF7E-27" target="s1SKyb5S-FayG0PBtF7E-24">
          <mxGeometry relative="1" as="geometry" />
        </mxCell>
        <mxCell id="s1SKyb5S-FayG0PBtF7E-27" value="&lt;p style=&quot;margin:0px;margin-top:4px;text-align:center;&quot;&gt;BaseDexClassLoader&lt;/p&gt;&lt;hr size=&quot;1&quot;&gt;&lt;p style=&quot;margin:0px;margin-left:4px;&quot;&gt;&lt;br&gt;&lt;/p&gt;&lt;hr size=&quot;1&quot;&gt;&lt;p style=&quot;margin:0px;margin-left:4px;&quot;&gt;&lt;br&gt;&lt;/p&gt;" style="verticalAlign=top;align=left;overflow=fill;fontSize=12;fontFamily=Helvetica;html=1;" vertex="1" parent="WIyWlLk6GJQsqaUBKTNV-1">
          <mxGeometry x="870" y="172" width="180" height="70" as="geometry" />
        </mxCell>
        <mxCell id="s1SKyb5S-FayG0PBtF7E-43" style="edgeStyle=orthogonalEdgeStyle;rounded=0;orthogonalLoop=1;jettySize=auto;html=1;exitX=0.5;exitY=0;exitDx=0;exitDy=0;entryX=0.5;entryY=1;entryDx=0;entryDy=0;" edge="1" parent="WIyWlLk6GJQsqaUBKTNV-1" source="s1SKyb5S-FayG0PBtF7E-34" target="s1SKyb5S-FayG0PBtF7E-27">
          <mxGeometry relative="1" as="geometry" />
        </mxCell>
        <mxCell id="s1SKyb5S-FayG0PBtF7E-34" value="&lt;p style=&quot;margin:0px;margin-top:4px;text-align:center;&quot;&gt;PathClassLoader&lt;/p&gt;&lt;hr size=&quot;1&quot;&gt;&lt;p style=&quot;margin:0px;margin-left:4px;&quot;&gt;&lt;br&gt;&lt;/p&gt;&lt;hr size=&quot;1&quot;&gt;&lt;p style=&quot;margin:0px;margin-left:4px;&quot;&gt;&lt;br&gt;&lt;/p&gt;" style="verticalAlign=top;align=left;overflow=fill;fontSize=12;fontFamily=Helvetica;html=1;" vertex="1" parent="WIyWlLk6GJQsqaUBKTNV-1">
          <mxGeometry x="760" y="310" width="180" height="70" as="geometry" />
        </mxCell>
        <mxCell id="s1SKyb5S-FayG0PBtF7E-44" style="edgeStyle=orthogonalEdgeStyle;rounded=0;orthogonalLoop=1;jettySize=auto;html=1;exitX=0.5;exitY=0;exitDx=0;exitDy=0;" edge="1" parent="WIyWlLk6GJQsqaUBKTNV-1" source="s1SKyb5S-FayG0PBtF7E-35">
          <mxGeometry relative="1" as="geometry">
            <mxPoint x="960" y="240" as="targetPoint" />
          </mxGeometry>
        </mxCell>
        <mxCell id="s1SKyb5S-FayG0PBtF7E-35" value="&lt;p style=&quot;margin:0px;margin-top:4px;text-align:center;&quot;&gt;DexClassLoader&lt;/p&gt;&lt;hr size=&quot;1&quot;&gt;&lt;p style=&quot;margin:0px;margin-left:4px;&quot;&gt;&lt;br&gt;&lt;/p&gt;&lt;hr size=&quot;1&quot;&gt;&lt;p style=&quot;margin:0px;margin-left:4px;&quot;&gt;&lt;br&gt;&lt;/p&gt;" style="verticalAlign=top;align=left;overflow=fill;fontSize=12;fontFamily=Helvetica;html=1;" vertex="1" parent="WIyWlLk6GJQsqaUBKTNV-1">
          <mxGeometry x="980" y="310" width="180" height="70" as="geometry" />
        </mxCell>
        <mxCell id="s1SKyb5S-FayG0PBtF7E-39" style="edgeStyle=orthogonalEdgeStyle;rounded=0;orthogonalLoop=1;jettySize=auto;html=1;exitX=0.5;exitY=0;exitDx=0;exitDy=0;entryX=0.5;entryY=1;entryDx=0;entryDy=0;" edge="1" parent="WIyWlLk6GJQsqaUBKTNV-1" source="s1SKyb5S-FayG0PBtF7E-38" target="s1SKyb5S-FayG0PBtF7E-25">
          <mxGeometry relative="1" as="geometry" />
        </mxCell>
        <mxCell id="s1SKyb5S-FayG0PBtF7E-38" value="&lt;p style=&quot;margin:0px;margin-top:4px;text-align:center;&quot;&gt;URLClassLoader&lt;br&gt;&lt;/p&gt;&lt;hr size=&quot;1&quot;&gt;&lt;p style=&quot;margin:0px;margin-left:4px;&quot;&gt;&lt;br&gt;&lt;/p&gt;&lt;hr size=&quot;1&quot;&gt;&lt;p style=&quot;margin:0px;margin-left:4px;&quot;&gt;&lt;br&gt;&lt;/p&gt;" style="verticalAlign=top;align=left;overflow=fill;fontSize=12;fontFamily=Helvetica;html=1;" vertex="1" parent="WIyWlLk6GJQsqaUBKTNV-1">
          <mxGeometry x="1220" y="306" width="180" height="70" as="geometry" />
        </mxCell>
        <mxCell id="s1SKyb5S-FayG0PBtF7E-40" value="Java 中类加载器" style="text;html=1;align=center;verticalAlign=middle;resizable=0;points=[];autosize=1;strokeColor=none;fillColor=none;" vertex="1" parent="WIyWlLk6GJQsqaUBKTNV-1">
          <mxGeometry x="210" y="10" width="110" height="30" as="geometry" />
        </mxCell>
        <mxCell id="s1SKyb5S-FayG0PBtF7E-41" value="Android 中类加载器" style="text;html=1;align=center;verticalAlign=middle;resizable=0;points=[];autosize=1;strokeColor=none;fillColor=none;" vertex="1" parent="WIyWlLk6GJQsqaUBKTNV-1">
          <mxGeometry x="885" y="5" width="130" height="30" as="geometry" />
        </mxCell>
      </root>
    </mxGraphModel>
  </diagram>
</mxfile>
